<svg xmlns="http://www.w3.org/2000/svg" xmlns:xlink="http://www.w3.org/1999/xlink" viewBox="0 0 100.3 100.2">
  <path opacity=".25" fill="#666" stroke="#666" stroke-width=".231" stroke-miterlimit="10" d="M50.2 100.2l-50-50 50-50 50 50-50 50"/>
  <path fill="#FFF" stroke="#F1F2F2" stroke-width=".23099769000000003" stroke-miterlimit="10" d="M50.163 7.647L92.73 50.214 50.164 92.782 7.596 50.214z"/><g opacity=".4"><defs><path id="a" opacity=".4" d="M50.163 7.647L92.73 50.214 50.164 92.782 7.596 50.214z"/></defs><clipPath id="b"><use xlink:href="#a" overflow="visible"/></clipPath></g><path d="M50.6 11v78.7l7.3-8.1V52.1l9 6.2v-7.7l-9.1-7.7v-11L72.7 44V33.8S50.6 10.2 50.6 11zM27.3 33.4v10l1.6-1.4h-.1l13.5-12.2v40.5L21.6 50.2H11l39.3 39.5V10.9"/>
</svg>
