<svg width="495" height="447" viewBox="0 0 495 447" fill="none" xmlns="http://www.w3.org/2000/svg">
<path d="M264.683 327.8C204.983 327.8 191.783 312.8 191.783 245.3C191.783 178.1 204.983 163.4 264.683 163.4C324.083 163.4 337.283 178.1 337.283 245.3C337.283 312.8 324.083 327.8 264.683 327.8ZM264.683 295.7C295.583 295.7 302.483 286.7 302.483 245.3C302.483 204.5 295.583 195.5 264.683 195.5C233.483 195.5 226.583 204.5 226.583 245.3C226.583 286.7 233.483 295.7 264.683 295.7Z" fill="black"/>
<path d="M80 134.6V92H124.4V134.6H80ZM41 324.8V294.8H90.2V196.4H44V166.4H123.8V294.8H170.3V324.8H41Z" fill="black"/>
<rect x="363.8" y="179.8" width="90" height="155" fill="#E46969"/>
</svg>