<svg width="190" height="190" viewBox="0 0 190 190" xmlns="http://www.w3.org/2000/svg">
	<style>
		.border {
		stroke: #454546;
		}
		@media (prefers-color-scheme: dark) {
		.border {
		stroke: #3D9CDA;
		}
		}
	</style>
	<path fill="#52A7DD" d="M153.008 7.783C111.457 1.196 95.75 33.625 95.75 33.625S80.043 1.196 38.493 7.783C16.246 11.31 5.197 35.278 7.946 55.953c3.356 25.241 24.265 44.838 38.755 64.199 13.076 17.475 26.795 34.578 40.322 51.713 2.939 3.721 5.771 7.529 8.727 11.236 2.955-3.707 5.787-7.516 8.727-11.236 13.527-17.135 27.246-34.238 40.322-51.713 14.49-19.361 35.398-38.958 38.756-64.199 2.748-20.675-8.301-44.643-30.547-48.17z">
	</path>
	<path fill="#1D7CBA" d="M138.75 11.358s44.065 36.935-44.173 163.245c-.001.001 165.333-156.333 44.173-163.245z">
	</path>
	<path class="border" fill="none" stroke="#454546" stroke-width="12" stroke-linecap="round" stroke-linejoin="round" d="M153.008 7.783C111.457 1.196 95.75 33.625 95.75 33.625S80.043 1.196 38.493 7.783C16.246 11.31 5.197 35.278 7.946 55.953c3.356 25.241 24.265 44.838 38.755 64.199 13.076 17.475 26.795 34.578 40.322 51.713 2.939 3.721 5.771 7.529 8.727 11.236 2.955-3.707 5.787-7.516 8.727-11.236 13.527-17.135 27.246-34.238 40.322-51.713 14.49-19.361 35.398-38.958 38.756-64.199 2.748-20.675-8.301-44.643-30.547-48.17z">
	</path>
</svg>
