<?xml version="1.0" standalone="no"?>
<!DOCTYPE svg PUBLIC "-//W3C//DTD SVG 20010904//EN"
 "http://www.w3.org/TR/2001/REC-SVG-20010904/DTD/svg10.dtd">
<svg version="1.0" xmlns="http://www.w3.org/2000/svg"
 width="700.000000pt" height="700.000000pt" viewBox="0 0 700.000000 700.000000"
 preserveAspectRatio="xMidYMid meet">
<metadata>
Created by potrace 1.11, written by Peter Selinger 2001-2013
</metadata>
<g transform="translate(0.000000,700.000000) scale(0.100000,-0.100000)"
fill="#000000" stroke="none">
<path d="M2706 5453 l-795 -778 0 -347 c-1 -192 2 -348 5 -348 3 0 36 29 72
64 37 35 267 244 512 466 l445 402 3 -707 c1 -389 1 -1022 0 -1408 l-3 -702
-715 697 -715 697 -369 0 -369 1 79 -82 c43 -46 658 -666 1366 -1378 l1288
-1295 0 2748 c0 1511 -2 2747 -4 2747 -3 0 -362 -350 -800 -777z"/>
<path d="M3530 3485 c0 -1510 2 -2745 4 -2745 2 0 116 126 255 279 l251 280 2
1029 3 1030 310 -214 c170 -118 311 -214 312 -214 2 0 3 120 3 268 l0 267
-320 270 -320 270 0 384 c0 305 3 381 13 374 45 -36 986 -800 1005 -816 l22
-20 0 359 -1 359 -415 440 c-468 495 -1076 1120 -1105 1136 -19 10 -19 -40
-19 -2736z"/>
</g>
</svg>
